<?xml version="1.0" encoding="utf-8" ?>
<svg xmlns="http://www.w3.org/2000/svg" xmlns:xlink="http://www.w3.org/1999/xlink" width="292" height="277">
	<path fill="#424549" d="M142.46 14.2815C150.079 13.7139 156.099 18.2934 161.72 22.869C185.426 42.1686 197.525 64.6159 200.629 94.8881C203.824 97.7134 207.453 100.08 210.676 102.914C222.083 112.967 231.078 125.462 236.991 139.469C241.502 149.927 244.16 161.089 244.847 172.457C245.124 176.402 245.351 181.329 243.804 185.048C241.438 190.733 233.033 194.035 227.755 196.191C207.43 204.498 184.966 206.023 163.705 200.54C157.67 198.966 151.906 196.754 146.162 194.347C145.69 194.073 144.951 193.566 144.385 193.63C142.549 193.837 135.997 197.053 133.552 197.855C118.993 202.625 104.106 204.711 88.8121 202.893C77.4173 201.539 53.0351 195.342 46.1197 186.374C42.5497 181.744 43.3897 174.509 44.0567 169.071C47.0964 144.289 56.6411 122.966 75.0394 105.719C79.398 101.633 84.1303 98.2314 88.8247 94.5656C89.7038 80.6489 93.9791 67.6074 100.358 55.2837C107.36 41.757 117.45 30.7053 129.606 21.6606C133.584 18.7009 137.692 15.7991 142.46 14.2815ZM111.442 108.317C111.994 111.874 112.428 115.461 113.213 118.975C116.62 134.234 123.987 148.06 135.247 158.966C138.192 161.819 141.41 164.143 144.5 166.795C145.771 165.727 147.071 164.693 148.397 163.694C166.038 148.569 175.123 131.484 177.787 108.394C174.736 107.384 171.786 106.105 168.736 105.095C161.232 102.559 153.373 101.226 145.452 101.148C143.275 101.113 140.629 100.942 138.497 101.356C129.12 101.872 120.12 104.945 111.442 108.317ZM144.625 38.8795C141.675 41.6318 138.437 44.0482 135.519 46.8426C124.86 57.0491 118.59 68.844 114.06 82.7299C121.299 79.5241 136.876 77.8256 144.846 77.7663C152.854 77.7736 161.659 78.8779 169.409 80.886C171.322 81.3817 173.098 82.2495 174.992 82.7522C174.862 80.357 173.627 77.6323 172.764 75.3875C167.87 62.6604 160.076 51.9462 149.975 42.859C148.454 41.4899 146.459 39.7535 144.625 38.8795ZM198.928 123.3C193.335 144.855 184.234 162.783 167.432 177.829C175.18 179.352 182.631 180.625 190.563 180.653C197.564 180.302 204.505 179.477 211.234 177.417C214.768 176.335 218.214 174.813 221.761 173.829C219.922 157.114 215.358 143.245 204.761 129.916C203.174 127.919 201.212 124.948 199.22 123.472C199.14 123.413 199.01 123.345 198.928 123.3ZM98.6883 180.416C106.478 180.529 113.899 179.287 121.513 177.785C113.02 169.616 104.96 160.138 99.5912 149.58C97.2208 144.918 95.0782 139.904 93.4465 134.933C92.7682 132.867 90.8796 124.021 89.8901 123.151C76.7365 137.649 68.2698 153.09 66.9001 173.028C76.9641 177.231 87.7461 180.022 98.6883 180.416Z"/>
	<path fill="#E04E61" d="M142.477 207.901C157.283 206.971 170.041 218.215 170.979 233.02C171.918 247.824 160.682 260.589 145.878 261.537C131.061 262.486 118.282 251.238 117.343 236.42C116.403 221.602 127.659 208.831 142.477 207.901Z"/>
	<path fill="#FEC346" d="M236.155 48.4306C251.011 47.6972 263.635 59.1748 264.315 74.0334C264.995 88.8919 253.473 101.475 238.612 102.102C223.826 102.726 211.32 91.2739 210.643 76.4904C209.967 61.7068 221.374 49.1602 236.155 48.4306Z"/>
	<path fill="#43A8B3" d="M49.8957 47.8469C64.6429 46.6772 77.5455 57.6855 78.7124 72.4329C79.8794 87.1804 68.8687 100.081 54.1211 101.245C39.3773 102.409 26.4808 91.4019 25.3142 76.6583C24.1475 61.9147 35.1523 49.0163 49.8957 47.8469Z"/>
</svg>
